<?xml version="1.0" standalone="no"?>
<!DOCTYPE svg PUBLIC "-//W3C//DTD SVG 20010904//EN"
 "http://www.w3.org/TR/2001/REC-SVG-20010904/DTD/svg10.dtd">
<svg version="1.0" xmlns="http://www.w3.org/2000/svg"
 width="500.000000pt" height="500.000000pt" viewBox="0 0 500.000000 500.000000"
 preserveAspectRatio="xMidYMid meet">
<metadata>
Created by potrace 1.14, written by Peter Selinger 2001-2017
</metadata>
<g transform="translate(0.000000,500.000000) scale(0.100000,-0.100000)"
fill="#000000" stroke="none">
<path d="M2066 4375 c-5 -15 -44 -265 -74 -475 l-17 -125 -150 -8 c-82 -4
-304 -6 -492 -4 l-343 4 6 -51 c3 -28 11 -109 17 -181 l12 -130 50 -7 c106
-14 473 -5 785 18 l85 6 -8 -173 c-4 -96 -10 -224 -13 -284 l-6 -110 -116 -57
c-212 -102 -377 -222 -547 -400 -218 -227 -349 -471 -401 -745 -23 -119 -23
-327 -1 -410 49 -186 173 -302 352 -334 216 -37 545 72 829 276 43 30 81 55
85 55 5 0 23 -42 41 -94 18 -52 35 -99 39 -104 4 -7 50 11 122 47 64 32 144
66 177 76 34 10 62 22 62 25 0 4 -18 55 -40 113 -23 59 -48 136 -57 171 l-17
64 85 90 c215 226 502 631 654 924 17 32 36 58 44 58 23 0 176 -76 238 -118
129 -88 231 -232 270 -382 25 -96 22 -290 -6 -395 -68 -256 -254 -467 -536
-608 -130 -64 -336 -128 -515 -158 -41 -7 -77 -14 -79 -15 -2 -2 13 -27 33
-57 35 -51 108 -208 122 -262 6 -26 9 -27 53 -20 81 12 306 73 407 110 259 96
437 207 604 375 128 128 201 236 257 375 97 241 116 522 52 756 -78 288 -316
532 -645 665 -58 23 -107 44 -110 46 -2 3 23 73 56 158 34 84 60 153 58 155
-2 1 -79 23 -173 50 -93 26 -175 49 -181 52 -6 2 -16 -15 -23 -39 -7 -24 -36
-101 -63 -171 l-51 -128 -56 8 c-143 19 -480 1 -615 -33 l-26 -6 0 79 c0 92
19 396 26 402 2 2 59 10 126 18 349 39 810 118 1011 174 75 21 78 23 73 48 -3
14 -13 94 -22 176 -9 83 -18 151 -18 152 -1 1 -31 -7 -66 -18 -110 -34 -296
-76 -485 -108 -184 -31 -575 -84 -581 -78 -5 5 32 246 59 384 l24 122 -51 11
c-41 8 -317 60 -322 60 -1 0 -4 -7 -8 -15z m774 -1699 c0 -3 -23 -44 -51 -93
-71 -125 -204 -320 -301 -444 -121 -155 -128 -162 -132 -158 -16 19 -64 635
-50 649 22 22 230 48 382 49 83 1 152 -1 152 -3z m-906 -298 c11 -175 34 -387
63 -572 26 -168 26 -169 6 -185 -238 -191 -394 -283 -540 -317 -81 -19 -166
-13 -195 13 -49 45 -65 131 -48 273 34 291 219 571 520 791 44 32 171 109 181
109 3 0 10 -51 13 -112z"/>
</g>
</svg>
