<?xml version="1.0" standalone="no"?>
<!DOCTYPE svg PUBLIC "-//W3C//DTD SVG 20010904//EN"
 "http://www.w3.org/TR/2001/REC-SVG-20010904/DTD/svg10.dtd">
<svg version="1.0" xmlns="http://www.w3.org/2000/svg"
 width="400.000000pt" height="400.000000pt" viewBox="0 0 400.000000 400.000000"
 preserveAspectRatio="xMidYMid meet">
<metadata>
Created by potrace 1.14, written by Peter Selinger 2001-2017
</metadata>
<g transform="translate(0.000000,400.000000) scale(0.100000,-0.100000)"
fill="#000000" stroke="none">
<path d="M1655 3488 c-6 -18 -32 -188 -53 -343 l-18 -130 -89 -8 c-50 -4 -226
-7 -392 -5 -298 3 -302 3 -298 -17 2 -11 6 -54 10 -95 3 -41 8 -99 12 -129 l6
-54 321 7 c176 4 341 9 365 13 l44 5 -6 -63 c-4 -35 -9 -137 -13 -225 l-6
-161 -112 -56 c-388 -193 -667 -539 -731 -906 -58 -330 46 -543 285 -582 165
-26 431 63 645 217 l74 52 19 -51 c11 -29 25 -68 32 -88 l13 -36 81 42 c45 24
108 53 142 65 l61 22 -43 124 c-24 69 -44 132 -44 141 0 9 31 49 70 89 151
160 343 425 471 653 34 62 65 114 70 117 13 8 137 -53 204 -101 109 -77 181
-187 205 -313 19 -96 8 -261 -23 -344 -67 -183 -194 -318 -395 -421 -129 -66
-244 -101 -471 -144 l-24 -4 21 -22 c25 -27 86 -147 104 -205 16 -51 15 -51
176 -12 409 100 711 310 854 595 68 133 105 325 94 485 -21 322 -204 560 -535
697 -47 19 -88 37 -90 39 -2 2 18 56 43 120 26 64 43 120 39 124 -8 8 -254 80
-271 80 -5 0 -28 -51 -51 -112 -23 -62 -46 -119 -51 -127 -7 -12 -47 -15 -212
-17 -127 -1 -230 -7 -277 -16 l-74 -15 7 161 c10 240 3 222 94 230 215 19 677
97 826 141 l58 17 -6 47 c-3 25 -11 88 -17 139 -11 88 -13 93 -33 88 -118 -34
-277 -70 -396 -90 -177 -31 -470 -69 -477 -62 -6 5 21 183 47 308 16 80 16 88
1 92 -9 3 -68 14 -131 26 -63 12 -123 23 -133 26 -9 3 -19 -1 -22 -8z m607
-1344 c7 -7 -58 -123 -125 -224 -59 -88 -221 -302 -241 -319 -11 -9 -15 7 -25
91 -14 130 -31 332 -31 380 l0 36 93 16 c50 9 112 17 137 19 86 6 187 7 192 1z
m-712 -216 c1 -107 30 -373 61 -546 10 -53 9 -65 -3 -75 -251 -207 -467 -302
-568 -250 -49 25 -64 73 -56 188 11 184 88 348 239 512 69 75 280 230 315 232
8 1 12 -18 12 -61z"/>
</g>
</svg>
